<svg xmlns="http://www.w3.org/2000/svg" xmlns:xlink="http://www.w3.org/1999/xlink" width="132" zoomAndPan="magnify" viewBox="0 0 98.88 36.000001" height="48" preserveAspectRatio="xMidYMid meet" version="1.2"><defs><clipPath id="82d0d640ac"><path d="M 9.804688 10.253906 L 25.023438 10.253906 L 25.023438 25.472656 L 9.804688 25.472656 Z M 9.804688 10.253906 "/></clipPath><clipPath id="1164c8958e"><path d="M 17.414062 10.253906 C 21.617188 10.253906 25.023438 13.660156 25.023438 17.863281 C 25.023438 22.066406 21.617188 25.472656 17.414062 25.472656 C 13.210938 25.472656 9.804688 22.066406 9.804688 17.863281 C 9.804688 13.660156 13.210938 10.253906 17.414062 10.253906 Z M 17.414062 10.253906 "/></clipPath><clipPath id="ef9fa7b0b2"><path d="M 16 23 L 20 23 L 20 24.125 L 16 24.125 Z M 16 23 "/></clipPath><clipPath id="93a975a971"><path d="M 14 21 L 17 21 L 17 24.125 L 14 24.125 Z M 14 21 "/></clipPath><clipPath id="d44ec03264"><path d="M 12.367188 15 L 14 15 L 14 17 L 12.367188 17 Z M 12.367188 15 "/></clipPath><clipPath id="9f2109aa6e"><path d="M 16 11.601562 L 17 11.601562 L 17 15 L 16 15 Z M 16 11.601562 "/></clipPath></defs><g id="c39a1be102"><g clip-rule="nonzero" clip-path="url(#82d0d640ac)"><g clip-rule="nonzero" clip-path="url(#1164c8958e)"><path style=" stroke:none;fill-rule:nonzero;fill:#0cc0df;fill-opacity:1;" d="M 9.804688 10.253906 L 25.023438 10.253906 L 25.023438 25.472656 L 9.804688 25.472656 Z M 9.804688 10.253906 "/></g></g><path style=" stroke:none;fill-rule:nonzero;fill:#000000;fill-opacity:1;" d="M 18.332031 22.082031 C 18.21875 22.109375 18.105469 22.132812 17.992188 22.148438 L 16.796875 22.335938 C 16.625 22.363281 16.464844 22.246094 16.4375 22.078125 C 16.410156 21.90625 16.527344 21.746094 16.699219 21.71875 L 17.90625 21.527344 C 17.996094 21.511719 18.085938 21.496094 18.175781 21.472656 L 18.761719 21.335938 C 18.765625 21.335938 18.769531 21.328125 18.769531 21.328125 C 18.726562 20.960938 18.765625 20.585938 18.878906 20.21875 C 18.960938 19.953125 19.089844 19.691406 19.265625 19.433594 C 19.285156 19.402344 19.304688 19.375 19.324219 19.34375 C 20.042969 18.179688 19.679688 16.644531 18.515625 15.925781 C 17.949219 15.578125 17.285156 15.46875 16.636719 15.621094 C 15.992188 15.773438 15.445312 16.167969 15.097656 16.734375 C 14.425781 17.816406 14.695312 19.222656 15.671875 19.992188 C 15.800781 20.089844 15.835938 20.265625 15.75 20.40625 C 15.652344 20.566406 15.433594 20.601562 15.285156 20.484375 C 14.058594 19.523438 13.722656 17.761719 14.5625 16.402344 C 15 15.695312 15.683594 15.203125 16.492188 15.011719 C 17.300781 14.820312 18.136719 14.953125 18.84375 15.390625 C 20.304688 16.292969 20.757812 18.214844 19.859375 19.675781 C 19.835938 19.710938 19.8125 19.75 19.785156 19.785156 C 19.644531 19.992188 19.542969 20.199219 19.476562 20.402344 C 19.390625 20.6875 19.359375 20.976562 19.394531 21.257812 C 19.429688 21.578125 19.21875 21.871094 18.90625 21.945312 L 18.332031 22.082031 "/><path style=" stroke:none;fill-rule:nonzero;fill:#000000;fill-opacity:1;" d="M 18.84375 22.890625 C 18.414062 22.992188 17.667969 23.148438 16.859375 23.214844 C 16.683594 23.230469 16.527344 23.09375 16.519531 22.917969 C 16.511719 22.746094 16.640625 22.601562 16.808594 22.589844 C 17.609375 22.523438 18.359375 22.363281 18.753906 22.265625 C 18.917969 22.226562 19.085938 22.324219 19.128906 22.488281 C 19.179688 22.660156 19.074219 22.835938 18.902344 22.878906 C 18.882812 22.882812 18.863281 22.886719 18.84375 22.890625 "/><g clip-rule="nonzero" clip-path="url(#ef9fa7b0b2)"><path style=" stroke:none;fill-rule:nonzero;fill:#000000;fill-opacity:1;" d="M 16.726562 23.789062 C 16.726562 23.621094 16.863281 23.484375 17.03125 23.480469 C 17.800781 23.460938 18.40625 23.335938 18.734375 23.25 C 18.890625 23.210938 19.050781 23.296875 19.105469 23.449219 C 19.167969 23.625 19.070312 23.8125 18.890625 23.859375 C 18.847656 23.871094 18.804688 23.882812 18.753906 23.894531 C 18.375 23.984375 17.785156 24.089844 17.050781 24.109375 C 16.871094 24.113281 16.726562 23.96875 16.726562 23.789062 "/></g><path style=" stroke:none;fill-rule:nonzero;fill:#ffffff;fill-opacity:1;" d="M 14.414062 23.144531 C 14.476562 23.074219 14.578125 22.960938 14.722656 22.824219 C 14.746094 23.019531 14.78125 23.269531 14.824219 23.507812 C 14.691406 23.4375 14.558594 23.359375 14.433594 23.273438 C 14.390625 23.246094 14.382812 23.183594 14.414062 23.144531 "/><g clip-rule="nonzero" clip-path="url(#93a975a971)"><path style=" stroke:none;fill-rule:nonzero;fill:#000000;fill-opacity:1;" d="M 16.378906 21.757812 C 16.308594 21.851562 16.277344 21.972656 16.296875 22.097656 C 16.316406 22.21875 16.378906 22.324219 16.476562 22.398438 C 16.535156 22.4375 16.597656 22.464844 16.664062 22.476562 C 16.488281 22.546875 16.367188 22.722656 16.375 22.925781 C 16.382812 23.046875 16.4375 23.164062 16.53125 23.246094 C 16.625 23.328125 16.746094 23.367188 16.871094 23.355469 C 16.878906 23.355469 16.882812 23.355469 16.886719 23.355469 L 16.890625 23.363281 C 16.710938 23.425781 16.585938 23.589844 16.582031 23.789062 C 16.582031 23.902344 16.625 24.011719 16.699219 24.097656 C 16.335938 24.039062 15.703125 23.910156 15.085938 23.632812 C 15.007812 23.296875 14.957031 22.863281 14.933594 22.636719 C 15.273438 22.347656 15.757812 22.007812 16.378906 21.757812 "/></g><path style=" stroke:none;fill-rule:nonzero;fill:#ffffff;fill-opacity:1;" d="M 16.921875 16.285156 C 17.097656 16.242188 17.269531 16.230469 17.4375 16.242188 C 17.339844 16.246094 17.234375 16.261719 17.132812 16.285156 C 16.179688 16.511719 15.589844 17.464844 15.816406 18.417969 C 16 19.195312 16.671875 19.730469 17.433594 19.777344 C 16.589844 19.828125 15.808594 19.265625 15.605469 18.417969 C 15.382812 17.464844 15.96875 16.511719 16.921875 16.285156 Z M 15.203125 18.511719 C 15.480469 19.679688 16.652344 20.402344 17.820312 20.128906 C 18.992188 19.851562 19.714844 18.679688 19.4375 17.507812 C 19.160156 16.339844 17.988281 15.613281 16.820312 15.890625 C 15.648438 16.167969 14.925781 17.339844 15.203125 18.511719 "/><g clip-rule="nonzero" clip-path="url(#d44ec03264)"><path style=" stroke:none;fill-rule:nonzero;fill:#ffffff;fill-opacity:1;" d="M 12.726562 15.175781 C 13.035156 15.144531 13.898438 16.304688 13.898438 16.304688 C 14.148438 16.621094 12.789062 15.765625 12.578125 15.660156 C 12.367188 15.554688 12.417969 15.203125 12.726562 15.175781 "/></g><path style=" stroke:none;fill-rule:nonzero;fill:#ffffff;fill-opacity:1;" d="M 13.941406 12.96875 C 14.332031 13.074219 14.859375 14.882812 14.859375 14.882812 C 15.019531 15.382812 13.75 13.71875 13.539062 13.492188 C 13.332031 13.269531 13.550781 12.863281 13.941406 12.96875 "/><g clip-rule="nonzero" clip-path="url(#9f2109aa6e)"><path style=" stroke:none;fill-rule:nonzero;fill:#ffffff;fill-opacity:1;" d="M 16.074219 12.238281 C 15.976562 11.90625 16.402344 11.605469 16.746094 11.910156 C 17.089844 12.214844 16.710938 14.308594 16.710938 14.308594 C 16.621094 14.898438 16.171875 12.570312 16.074219 12.238281 "/></g><path style=" stroke:none;fill-rule:nonzero;fill:#ffffff;fill-opacity:1;" d="M 18.855469 14.523438 C 18.53125 15.019531 19.085938 12.71875 19.132812 12.375 C 19.183594 12.03125 19.695312 11.933594 19.878906 12.351562 C 20.066406 12.769531 18.855469 14.523438 18.855469 14.523438 "/><path style=" stroke:none;fill-rule:nonzero;fill:#ffffff;fill-opacity:1;" d="M 20.171875 15.769531 C 19.582031 15.839844 21.703125 14.789062 22 14.609375 C 22.296875 14.425781 22.695312 14.753906 22.496094 15.167969 C 22.292969 15.578125 20.171875 15.769531 20.171875 15.769531 "/><path style=" stroke:none;fill-rule:nonzero;fill:#ffffff;fill-opacity:1;" d="M 22.640625 17.109375 C 22.933594 17.074219 23.128906 17.472656 22.824219 17.722656 C 22.519531 17.96875 20.800781 17.359375 20.800781 17.359375 C 20.316406 17.203125 22.34375 17.144531 22.640625 17.109375 "/><path style=" stroke:none;fill-rule:nonzero;fill:#ffffff;fill-opacity:1;" d="M 22.199219 19.25 C 22.449219 19.320312 22.476562 19.707031 22.144531 19.804688 C 21.816406 19.90625 20.628906 18.839844 20.628906 18.839844 C 20.289062 18.554688 21.949219 19.179688 22.199219 19.25 "/><path style=" stroke:none;fill-rule:nonzero;fill:#ffffff;fill-opacity:1;" d="M 20.996094 20.78125 C 21.148438 20.867188 21.105469 21.121094 20.878906 21.136719 C 20.648438 21.148438 20.042969 20.277344 20.042969 20.277344 C 19.867188 20.039062 20.84375 20.699219 20.996094 20.78125 "/><g style="fill:#ffffff;fill-opacity:1;"><g transform="translate(27.390354, 21.771506)"><path style="stroke:none" d="M 0.390625 -4.40625 C 0.390625 -5.269531 0.570312 -6.035156 0.9375 -6.703125 C 1.300781 -7.378906 1.8125 -7.90625 2.46875 -8.28125 C 3.132812 -8.664062 3.898438 -8.859375 4.765625 -8.859375 C 5.859375 -8.859375 6.773438 -8.566406 7.515625 -7.984375 C 8.265625 -7.398438 8.75 -6.601562 8.96875 -5.59375 L 6.34375 -5.59375 C 6.1875 -5.925781 5.96875 -6.175781 5.6875 -6.34375 C 5.414062 -6.519531 5.09375 -6.609375 4.71875 -6.609375 C 4.15625 -6.609375 3.707031 -6.40625 3.375 -6 C 3.039062 -5.601562 2.875 -5.070312 2.875 -4.40625 C 2.875 -3.726562 3.039062 -3.1875 3.375 -2.78125 C 3.707031 -2.375 4.15625 -2.171875 4.71875 -2.171875 C 5.09375 -2.171875 5.414062 -2.257812 5.6875 -2.4375 C 5.96875 -2.613281 6.1875 -2.867188 6.34375 -3.203125 L 8.96875 -3.203125 C 8.75 -2.191406 8.265625 -1.394531 7.515625 -0.8125 C 6.773438 -0.226562 5.859375 0.0625 4.765625 0.0625 C 3.898438 0.0625 3.132812 -0.125 2.46875 -0.5 C 1.8125 -0.875 1.300781 -1.398438 0.9375 -2.078125 C 0.570312 -2.753906 0.390625 -3.53125 0.390625 -4.40625 Z M 0.390625 -4.40625 "/></g></g><g style="fill:#ffffff;fill-opacity:1;"><g transform="translate(36.81062, 21.771506)"><path style="stroke:none" d="M 3.9375 0.09375 C 3.238281 0.09375 2.613281 -0.0507812 2.0625 -0.34375 C 1.519531 -0.632812 1.085938 -1.050781 0.765625 -1.59375 C 0.453125 -2.132812 0.296875 -2.769531 0.296875 -3.5 C 0.296875 -4.21875 0.453125 -4.84375 0.765625 -5.375 C 1.085938 -5.914062 1.523438 -6.332031 2.078125 -6.625 C 2.628906 -6.914062 3.253906 -7.0625 3.953125 -7.0625 C 4.648438 -7.0625 5.273438 -6.914062 5.828125 -6.625 C 6.378906 -6.332031 6.8125 -5.914062 7.125 -5.375 C 7.445312 -4.84375 7.609375 -4.21875 7.609375 -3.5 C 7.609375 -2.769531 7.445312 -2.132812 7.125 -1.59375 C 6.8125 -1.050781 6.375 -0.632812 5.8125 -0.34375 C 5.257812 -0.0507812 4.632812 0.09375 3.9375 0.09375 Z M 3.9375 -2.03125 C 4.28125 -2.03125 4.566406 -2.15625 4.796875 -2.40625 C 5.023438 -2.65625 5.140625 -3.019531 5.140625 -3.5 C 5.140625 -3.96875 5.023438 -4.328125 4.796875 -4.578125 C 4.566406 -4.828125 4.285156 -4.953125 3.953125 -4.953125 C 3.617188 -4.953125 3.335938 -4.828125 3.109375 -4.578125 C 2.890625 -4.328125 2.78125 -3.96875 2.78125 -3.5 C 2.78125 -3.019531 2.890625 -2.65625 3.109375 -2.40625 C 3.328125 -2.15625 3.601562 -2.03125 3.9375 -2.03125 Z M 3.9375 -2.03125 "/></g></g><g style="fill:#ffffff;fill-opacity:1;"><g transform="translate(44.714696, 21.771506)"><path style="stroke:none" d="M 3.140625 -5.75 C 3.410156 -6.144531 3.738281 -6.457031 4.125 -6.6875 C 4.519531 -6.925781 4.941406 -7.046875 5.390625 -7.046875 L 5.390625 -4.4375 L 4.703125 -4.4375 C 4.171875 -4.4375 3.773438 -4.332031 3.515625 -4.125 C 3.265625 -3.914062 3.140625 -3.554688 3.140625 -3.046875 L 3.140625 0 L 0.703125 0 L 0.703125 -6.984375 L 3.140625 -6.984375 Z M 3.140625 -5.75 "/></g></g><g style="fill:#ffffff;fill-opacity:1;"><g transform="translate(50.269919, 21.771506)"><path style="stroke:none" d="M 7.359375 -3.5625 C 7.359375 -3.375 7.347656 -3.1875 7.328125 -3 L 2.71875 -3 C 2.738281 -2.613281 2.84375 -2.328125 3.03125 -2.140625 C 3.21875 -1.953125 3.457031 -1.859375 3.75 -1.859375 C 4.15625 -1.859375 4.441406 -2.039062 4.609375 -2.40625 L 7.21875 -2.40625 C 7.101562 -1.925781 6.890625 -1.5 6.578125 -1.125 C 6.273438 -0.75 5.882812 -0.453125 5.40625 -0.234375 C 4.9375 -0.015625 4.414062 0.09375 3.84375 0.09375 C 3.15625 0.09375 2.539062 -0.0507812 2 -0.34375 C 1.46875 -0.632812 1.050781 -1.050781 0.75 -1.59375 C 0.445312 -2.132812 0.296875 -2.769531 0.296875 -3.5 C 0.296875 -4.226562 0.441406 -4.859375 0.734375 -5.390625 C 1.035156 -5.921875 1.453125 -6.332031 1.984375 -6.625 C 2.523438 -6.914062 3.144531 -7.0625 3.84375 -7.0625 C 4.53125 -7.0625 5.140625 -6.921875 5.671875 -6.640625 C 6.203125 -6.359375 6.613281 -5.953125 6.90625 -5.421875 C 7.207031 -4.898438 7.359375 -4.28125 7.359375 -3.5625 Z M 4.875 -4.171875 C 4.875 -4.472656 4.773438 -4.707031 4.578125 -4.875 C 4.378906 -5.050781 4.128906 -5.140625 3.828125 -5.140625 C 3.535156 -5.140625 3.289062 -5.054688 3.09375 -4.890625 C 2.90625 -4.734375 2.78125 -4.492188 2.71875 -4.171875 Z M 4.875 -4.171875 "/></g></g><g style="fill:#ffffff;fill-opacity:1;"><g transform="translate(57.925441, 21.771506)"><path style="stroke:none" d="M 3.265625 -7.0625 C 3.742188 -7.0625 4.15625 -6.96875 4.5 -6.78125 C 4.851562 -6.59375 5.128906 -6.332031 5.328125 -6 L 5.328125 -6.984375 L 7.765625 -6.984375 L 7.765625 -0.078125 C 7.765625 0.578125 7.640625 1.164062 7.390625 1.6875 C 7.140625 2.21875 6.75 2.640625 6.21875 2.953125 C 5.695312 3.273438 5.035156 3.4375 4.234375 3.4375 C 3.148438 3.4375 2.285156 3.179688 1.640625 2.671875 C 0.992188 2.171875 0.625 1.484375 0.53125 0.609375 L 2.9375 0.609375 C 2.988281 0.828125 3.113281 1 3.3125 1.125 C 3.507812 1.25 3.765625 1.3125 4.078125 1.3125 C 4.910156 1.3125 5.328125 0.847656 5.328125 -0.078125 L 5.328125 -0.96875 C 5.128906 -0.644531 4.851562 -0.382812 4.5 -0.1875 C 4.15625 0 3.742188 0.09375 3.265625 0.09375 C 2.710938 0.09375 2.207031 -0.0507812 1.75 -0.34375 C 1.300781 -0.632812 0.945312 -1.050781 0.6875 -1.59375 C 0.425781 -2.132812 0.296875 -2.769531 0.296875 -3.5 C 0.296875 -4.21875 0.425781 -4.84375 0.6875 -5.375 C 0.945312 -5.914062 1.300781 -6.332031 1.75 -6.625 C 2.207031 -6.914062 2.710938 -7.0625 3.265625 -7.0625 Z M 5.328125 -3.5 C 5.328125 -3.945312 5.203125 -4.296875 4.953125 -4.546875 C 4.710938 -4.804688 4.410156 -4.9375 4.046875 -4.9375 C 3.679688 -4.9375 3.378906 -4.804688 3.140625 -4.546875 C 2.898438 -4.296875 2.78125 -3.945312 2.78125 -3.5 C 2.78125 -3.050781 2.898438 -2.695312 3.140625 -2.4375 C 3.378906 -2.175781 3.679688 -2.046875 4.046875 -2.046875 C 4.410156 -2.046875 4.710938 -2.171875 4.953125 -2.421875 C 5.203125 -2.679688 5.328125 -3.039062 5.328125 -3.5 Z M 5.328125 -3.5 "/></g></g><g style="fill:#ffffff;fill-opacity:1;"><g transform="translate(66.376341, 21.771506)"><path style="stroke:none" d="M 8.203125 -6.984375 L 3.78125 3.328125 L 1.125 3.328125 L 2.796875 -0.296875 L -0.0625 -6.984375 L 2.65625 -6.984375 L 4.109375 -3.015625 L 5.53125 -6.984375 Z M 8.203125 -6.984375 "/></g></g><g style="fill:#ffffff;fill-opacity:1;"><g transform="translate(74.516544, 21.771506)"><path style="stroke:none" d="M 0.296875 -3.5 C 0.296875 -4.21875 0.425781 -4.84375 0.6875 -5.375 C 0.945312 -5.914062 1.300781 -6.332031 1.75 -6.625 C 2.207031 -6.914062 2.710938 -7.0625 3.265625 -7.0625 C 3.753906 -7.0625 4.171875 -6.96875 4.515625 -6.78125 C 4.859375 -6.59375 5.128906 -6.332031 5.328125 -6 L 5.328125 -6.984375 L 7.765625 -6.984375 L 7.765625 0 L 5.328125 0 L 5.328125 -0.96875 C 5.128906 -0.644531 4.851562 -0.382812 4.5 -0.1875 C 4.15625 0 3.742188 0.09375 3.265625 0.09375 C 2.710938 0.09375 2.207031 -0.0507812 1.75 -0.34375 C 1.300781 -0.632812 0.945312 -1.050781 0.6875 -1.59375 C 0.425781 -2.132812 0.296875 -2.769531 0.296875 -3.5 Z M 5.328125 -3.5 C 5.328125 -3.945312 5.203125 -4.296875 4.953125 -4.546875 C 4.710938 -4.804688 4.410156 -4.9375 4.046875 -4.9375 C 3.679688 -4.9375 3.378906 -4.804688 3.140625 -4.546875 C 2.898438 -4.296875 2.78125 -3.945312 2.78125 -3.5 C 2.78125 -3.050781 2.898438 -2.695312 3.140625 -2.4375 C 3.378906 -2.175781 3.679688 -2.046875 4.046875 -2.046875 C 4.410156 -2.046875 4.710938 -2.171875 4.953125 -2.421875 C 5.203125 -2.679688 5.328125 -3.039062 5.328125 -3.5 Z M 5.328125 -3.5 "/></g></g><g style="fill:#ffffff;fill-opacity:1;"><g transform="translate(82.967444, 21.771506)"><path style="stroke:none" d="M 5.265625 -7.046875 C 6.066406 -7.046875 6.703125 -6.773438 7.171875 -6.234375 C 7.648438 -5.703125 7.890625 -4.976562 7.890625 -4.0625 L 7.890625 0 L 5.453125 0 L 5.453125 -3.75 C 5.453125 -4.144531 5.347656 -4.457031 5.140625 -4.6875 C 4.929688 -4.914062 4.648438 -5.03125 4.296875 -5.03125 C 3.929688 -5.03125 3.644531 -4.914062 3.4375 -4.6875 C 3.238281 -4.457031 3.140625 -4.144531 3.140625 -3.75 L 3.140625 0 L 0.703125 0 L 0.703125 -6.984375 L 3.140625 -6.984375 L 3.140625 -5.984375 C 3.347656 -6.296875 3.632812 -6.550781 4 -6.75 C 4.363281 -6.945312 4.785156 -7.046875 5.265625 -7.046875 Z M 5.265625 -7.046875 "/></g></g></g></svg>